<?xml version="1.0" encoding="UTF-8"?>
<svg width="460px" height="460px" viewBox="0 0 460 460" version="1.1" xmlns="http://www.w3.org/2000/svg" xmlns:xlink="http://www.w3.org/1999/xlink">
    <title>navi-icon-dark</title>
    <g id="页面-1" stroke="none" stroke-width="1" fill="none" fill-rule="evenodd">
        <g id="navi-icon-dark" transform="translate(0.380083, 0.380083)" fill-rule="nonzero">
            <path d="M395.476917,350.494917 L411.536917,410.429917 C412.348917,413.460917 409.574917,416.234917 406.543917,415.422917 L346.608917,399.363917 C343.577917,398.550917 342.561917,394.761917 344.780917,392.542917 L388.656917,348.667917 C390.875917,346.447917 394.664917,347.463917 395.476917,350.494917 Z M453.799917,229.619917 C460.146917,229.619917 461.347917,238.640917 455.222917,240.301917 L398.250895,255.751774 C387.488552,332.181108 326.099116,392.353265 249.089917,401.260917 L249.089917,401.260917 L262.444917,352.005917 C304.61634,340.397769 337.84334,307.201704 349.495887,265.048262 L318.706917,234.259917 C316.993917,232.547917 318.206917,229.619917 320.627917,229.619917 L453.799917,229.619917 Z M229.619917,145.172917 L195.958021,111.510154 C154.654474,122.928135 121.951272,155.059727 109.728917,196.022917 L109.728917,196.022917 L60.0432173,209.494917 C69.8172783,134.407153 128.399157,74.6519524 202.914422,63.1020892 L218.937917,4.01721729 C220.598917,-2.10828271 229.619917,-0.906882711 229.619917,5.43981729 L229.619917,5.43981729 L229.619917,145.172917 Z M50.5909173,51.6045173 L110.524917,67.6639173 C113.556917,68.4759173 114.571917,72.2659173 112.352917,74.4849173 L68.4779173,118.359917 C66.2589173,120.578917 62.4694173,119.563917 61.6571173,116.531917 L45.5977173,56.5977173 C44.7854173,53.5662173 47.5594173,50.7922173 50.5909173,51.6045173 Z" id="b" fill="#8BA6E9"></path>
            <path d="M138.611917,229.619917 C141.032917,229.619917 142.245917,232.547917 140.532917,234.259917 L140.532917,234.259917 L109.19116,265.601362 C120.659104,306.350248 152.311261,338.645104 192.674918,351.013217 L224.979917,318.706917 C226.691917,316.993917 229.619917,318.206917 229.619917,320.627917 L229.619917,453.799917 C229.619917,460.146917 220.598917,461.347917 218.937917,455.222917 L204.11552,400.559512 C129.550385,389.545649 70.691605,330.305165 60.2549526,255.55361 L4.01721729,240.301917 C-2.10828271,238.640917 -0.906882711,229.619917 5.43981729,229.619917 L5.43981729,229.619917 Z M61.6571173,350.494917 C62.4694173,347.463917 66.2589173,346.447917 68.4779173,348.667917 L68.4779173,348.667917 L112.352917,392.542917 C114.571917,394.761917 113.556917,398.550917 110.524917,399.363917 L110.524917,399.363917 L50.5909173,415.422917 C47.5594173,416.234917 44.7854173,413.460917 45.5977173,410.429917 L45.5977173,410.429917 Z M250.376917,62.3728173 C327.339917,71.8679173 388.434917,132.602917 398.476917,209.395917 L398.476917,209.395917 L348.772917,195.918917 C336.646917,155.407917 304.485917,123.551917 263.792917,111.853917 L263.792917,111.853917 Z M406.543917,51.6045173 C409.574917,50.7922173 412.348917,53.5662173 411.536917,56.5977173 L411.536917,56.5977173 L395.476917,116.531917 C394.664917,119.563917 390.875917,120.578917 388.656917,118.359917 L388.656917,118.359917 L344.780917,74.4849173 C342.561917,72.2659173 343.577917,68.4759173 346.608917,67.6639173 L346.608917,67.6639173 Z" id="a" fill="#2463DD"></path>
        </g>
    </g>
</svg>